{"title":"BBC Africa E02 Savannah 2013 1080p x264 AC3 - alrmothe","uid":8630313,"size":6105717087,"categoryP":"video","categoryS":"hd___movies","magnet":"?xt=urn:btih:ba55d149990abeeee753ff1748a5543dbd9c86ea&amp;dn=BBC+Africa+E02+Savannah+2013+1080p+x264+AC3+-+alrmothe&amp;tr=udp%3A%2F%2Ftracker.openbittorrent.com%3A80&amp;tr=udp%3A%2F%2Fopen.demonii.com%3A1337&amp;tr=udp%3A%2F%2Ftracker.coppersurfer.tk%3A6969&amp;tr=udp%3A%2F%2Fexodus.desync.com%3A6969","seeders":2,"leechers":4,"uploader":".alrmothe","files":21,"time":1372616878,"description":"***************************************************************\n\nBBC Africa E01 Kalahari 2013 1080p x264 AC3 - alrmothe\n\n***************************************************************\n\nTitle : BBC David Attenborough's Africa \nYEAR: 2013\nGENRE : Documentary    \nimdb URL :http://www.imdb.com/title/tt2571774/\nFormat: Matroska\nOverall bit rate:14 Mbps\nFormat version: Version 4 / Version 2\nFile size:  5.69 GiB\nDuration: 57mn 57s\n\n***************************************************************\n\nVideo\nFormat : AVC \nFormat/Info : Advanced Video Codec \nFormat profile : &lt;a class=&quot;__cf_email__&quot; href=&quot;/cdn-cgi/l/email-protection&quot; data-cfemail=&quot;88c0e1efe0c8c4bca6b9&quot;&gt;[email&amp;#160;protected]&lt;/a&gt;&lt;script cf-hash='f9e31' type=&quot;text/javascript&quot;&gt;\n/* &lt;![CDATA[ */!function(){try{var t=&quot;currentScript&quot;in document?document.currentScript:function(){for(var t=document.getElementsByTagName(&quot;script&quot;),e=t.length;e--;)if(t[e].getAttribute(&quot;cf-hash&quot;))return t[e]}();if(t&amp;&amp;t.previousSibling){var e,r,n,i,c=t.previousSibling,a=c.getAttribute(&quot;data-cfemail&quot;);if(a){for(e=&quot;&quot;,r=parseInt(a.substr(0,2),16),n=2;a.length-n;n+=2)i=parseInt(a.substr(n,2),16)^r,e+=String.fromCharCode(i);e=document.createTextNode(e),c.parentNode.replaceChild(e,c)}}}catch(u){}}();/* ]]&gt; */&lt;/script&gt; \nFormat settings, CABAC : Yes \nFormat settings, ReFrames : 4 frames  \nCodec ID : V_MPEG4/ISO/AVC  \nBit rate :13.4 Mbps \nWidth : 1920 pixels \nHeight :1080 pixels \nDisplay aspect ratio : 16:9 \nFrame rate : 25 fps \nColor space : YUV \nChroma subsampling : 4:2:0 \nBit depth : 8 bits \nScan type : Progressive \nBits/(Pixel*Frame) : 0.258 \nStream size: 5.31 GiB \n\n\nAudio#1 \nFormat: AC3\nBit rate :640 Kbps\nChannel(s) : 6 channels\nChannel positions:Front: L C R, Side: L R, LFE\nSampling rate: 48.0 KHz\nBit depth: 16bits\nCompression mode: Lossy\nStream size: 265 GiB\nLanguage : English\n\n\nsub : Arabic,English\n\n***************************************************************\n &lt;a href=&quot;\nhttp://img94.imageshack.us/img94/2151/52z.png&quot; rel=&quot;nofollow&quot; target=&quot;_NEW&quot;&gt;\nhttp://img94.imageshack.us/img94/2151/52z.png&lt;/a&gt; &lt;a href=&quot;\nhttp://img443.imageshack.us/img443/5328/9h3.png&quot; rel=&quot;nofollow&quot; target=&quot;_NEW&quot;&gt;\nhttp://img443.imageshack.us/img443/5328/9h3.png&lt;/a&gt; &lt;a href=&quot;\nhttp://img199.imageshack.us/img199/6910/whur.png&quot; rel=&quot;nofollow&quot; target=&quot;_NEW&quot;&gt;\nhttp://img199.imageshack.us/img199/6910/whur.png&lt;/a&gt; &lt;a href=&quot;\nhttp://img819.imageshack.us/img819/7711/lcws.png&quot; rel=&quot;nofollow&quot; target=&quot;_NEW&quot;&gt;\nhttp://img819.imageshack.us/img819/7711/lcws.png&lt;/a&gt; &lt;a href=&quot;\nhttp://img844.imageshack.us/img844/8886/mhq.png&quot; rel=&quot;nofollow&quot; target=&quot;_NEW&quot;&gt;\nhttp://img844.imageshack.us/img844/8886/mhq.png&lt;/a&gt; &lt;a href=&quot;\nhttp://img534.imageshack.us/img534/4479/3hhy.png&quot; rel=&quot;nofollow&quot; target=&quot;_NEW&quot;&gt;\nhttp://img534.imageshack.us/img534/4479/3hhy.png&lt;/a&gt; &lt;a href=&quot;\nhttp://img834.imageshack.us/img834/3130/lzsp.png&quot; rel=&quot;nofollow&quot; target=&quot;_NEW&quot;&gt;\nhttp://img834.imageshack.us/img834/3130/lzsp.png&lt;/a&gt; &lt;a href=&quot;\nhttp://img543.imageshack.us/img543/7320/49c0.png&quot; rel=&quot;nofollow&quot; target=&quot;_NEW&quot;&gt;\nhttp://img543.imageshack.us/img543/7320/49c0.png&lt;/a&gt;","torrent":{"xt":"urn:btih:ba55d149990abeeee753ff1748a5543dbd9c86ea","amp;dn":"BBC+Africa+E02+Savannah+2013+1080p+x264+AC3+-+alrmothe","amp;tr":["udp%3A%2F%2Ftracker.openbittorrent.com%3A80","udp%3A%2F%2Fopen.demonii.com%3A1337","udp%3A%2F%2Ftracker.coppersurfer.tk%3A6969","udp%3A%2F%2Fexodus.desync.com%3A6969"],"infoHash":"ba55d149990abeeee753ff1748a5543dbd9c86ea","infoHashBuffer":{"type":"Buffer","data":[186,85,209,73,153,10,190,238,231,83,255,23,72,165,84,61,189,156,134,234]},"announce":[],"urlList":[]}}